<?xml version="1.0" standalone="no"?>
<!DOCTYPE svg PUBLIC "-//W3C//DTD SVG 1.1//EN"
"http://www.w3.org/Graphics/SVG/1.1/DTD/svg11.dtd">
<svg  version="1.1" xmlns="http://www.w3.org/2000/svg"><!--   //////////////DISPOSE??????????????  --><!--   //////////////DISPOSE??????????????  --><!-- setPaint (  #FFF  )  --><rect   x="0" y="0" width="474" height="174" style="fill:#FFF; stroke:none ;"/><!-- setPaint (  #FFF  )  --><rect   x="58" y="30" width="400" height="100" style="fill:#FFF; stroke:none ;"/><clipPath id="_X59_Y29_W399_H102"><rect   x="59" y="29" width="399" height="102" style="fill:#FFF; stroke:none ;"/></clipPath><!-- setPaint (  #F00  )  --><!-- setStroke(Stroke#000) --><polyline  points="  49.0,130.0  49.0,126.0  63.0,126.0  63.0,119.0  78.0,119.0  78.0,109.0  92.0,109.0  92.0,90.0  107.0,90.0  107.0,118.0  121.0,118.0  121.0,92.0  135.0,92.0  135.0,91.0  150.0,91.0  150.0,102.0  164.0,102.0  164.0,107.0  179.0,107.0  207.0,111.0  222.0,111.0  222.0,116.0  236.0,116.0  236.0,117.0  251.0,117.0  251.0,110.0  265.0,110.0  265.0,111.0  279.0,111.0  279.0,105.0  294.0,105.0  294.0,117.0  308.0,117.0  308.0,119.0  323.0,119.0  323.0,125.0  337.0,125.0  337.0,122.0  351.0,122.0  351.0,129.0  366.0,129.0  366.0,129.0  380.0,129.0  380.0,129.0  395.0,129.0  395.0,129.0  409.0,129.0  409.0,130.0  423.0,130.0  423.0,130.0  438.0,130.0  438.0,128.0  452.0,128.0  452.0,128.0  467.0,128.0" style="fill:none;stroke:#F00;stroke-width:1.0 "/><!-- setPaint (  #0F0  )  --><!-- setStroke(Stroke#000) --><polyline  points="  49.0,126.0  49.0,122.0  63.0,122.0  63.0,116.0  78.0,116.0  78.0,104.0  92.0,104.0  92.0,86.0  107.0,86.0  107.0,113.0  121.0,113.0  121.0,88.0  135.0,88.0  135.0,82.0  150.0,82.0  150.0,97.0  164.0,97.0  164.0,103.0  179.0,103.0  207.0,108.0  222.0,108.0  222.0,112.0  236.0,112.0  236.0,114.0  251.0,114.0  251.0,107.0  265.0,107.0  265.0,106.0  279.0,106.0  279.0,102.0  294.0,102.0  294.0,111.0  308.0,111.0  308.0,115.0  323.0,115.0  323.0,121.0  337.0,121.0  337.0,118.0  351.0,118.0  351.0,125.0  366.0,125.0  366.0,123.0  380.0,123.0  380.0,125.0  395.0,125.0  395.0,125.0  409.0,125.0  409.0,125.0  423.0,125.0  423.0,126.0  438.0,126.0  438.0,124.0  452.0,124.0  452.0,124.0  467.0,124.0" style="fill:none;stroke:#0F0;stroke-width:1.0 "/><!-- setPaint (  #00F  )  --><!-- setStroke(Stroke#000) --><polyline  points="  49.0,123.0  49.0,120.0  63.0,120.0  63.0,112.0  78.0,112.0  78.0,100.0  92.0,100.0  92.0,80.0  107.0,80.0  107.0,109.0  121.0,109.0  121.0,81.0  135.0,81.0  135.0,76.0  150.0,76.0  150.0,94.0  164.0,94.0  164.0,100.0  179.0,100.0  207.0,105.0  222.0,105.0  222.0,107.0  236.0,107.0  236.0,111.0  251.0,111.0  251.0,103.0  265.0,103.0  265.0,102.0  279.0,102.0  279.0,99.0  294.0,99.0  294.0,109.0  308.0,109.0  308.0,112.0  323.0,112.0  323.0,119.0  337.0,119.0  337.0,115.0  351.0,115.0  351.0,123.0  366.0,123.0  366.0,121.0  380.0,121.0  380.0,123.0  395.0,123.0  395.0,123.0  409.0,123.0  409.0,122.0  423.0,122.0  423.0,124.0  438.0,124.0  438.0,122.0  452.0,122.0  452.0,121.0  467.0,121.0" style="fill:none;stroke:#00F;stroke-width:1.0 "/><!-- setTransform(int transform="translate(0 , 0)  rotate(0.0) "  )  --><clipPath id="_X0_Y0_W474_H174"><rect   x="0" y="0" width="474" height="174" style="fill:#00F; stroke:none ;"/></clipPath><!-- setStroke(Stroke#000) --><!-- setPaint (  #ccc  )  --> <!-- line ( 0:0 - 473:0) --><polyline  points="  0.0,0.0  473.0,0.0" style="fill:none;stroke:#ccc;stroke-width:1.0 "/><!-- setStroke(Stroke#000) --><!-- setPaint (  #ccc  )  --> <!-- line ( 1:1 - 472:1) --><polyline  points="  1.0,1.0  472.0,1.0" style="fill:none;stroke:#ccc;stroke-width:1.0 "/><!-- setStroke(Stroke#000) --><!-- setPaint (  #ccc  )  --> <!-- line ( 0:0 - 0:173) --><polyline  points="  0.0,0.0  0.0,173.0" style="fill:none;stroke:#ccc;stroke-width:1.0 "/><!-- setStroke(Stroke#000) --><!-- setPaint (  #ccc  )  --> <!-- line ( 1:1 - 1:172) --><polyline  points="  1.0,1.0  1.0,172.0" style="fill:none;stroke:#ccc;stroke-width:1.0 "/><!-- setStroke(Stroke#000) --><!-- setPaint (  #999  )  --> <!-- line ( 473:0 - 473:173) --><polyline  points="  473.0,0.0  473.0,173.0" style="fill:none;stroke:#999;stroke-width:1.0 "/><!-- setStroke(Stroke#000) --><!-- setPaint (  #999  )  --> <!-- line ( 0:173 - 473:173) --><polyline  points="  0.0,173.0  473.0,173.0" style="fill:none;stroke:#999;stroke-width:1.0 "/><!-- setStroke(Stroke#000) --><!-- setPaint (  #999  )  --> <!-- line ( 472:1 - 472:172) --><polyline  points="  472.0,1.0  472.0,172.0" style="fill:none;stroke:#999;stroke-width:1.0 "/><!-- setStroke(Stroke#000) --><!-- setPaint (  #999  )  --> <!-- line ( 1:172 - 472:172) --><polyline  points="  1.0,172.0  472.0,172.0" style="fill:none;stroke:#999;stroke-width:1.0 "/><!-- setStroke(Stroke#000) --><!-- setPaint (  #aaa  )  --> <!-- line ( 63:129 - 63:131) --><polyline  points="  63.0,129.0  63.0,131.0" style="fill:none;stroke:#aaa;stroke-width:0.4 "/><!-- setStroke(Stroke#000) --><!-- setPaint (  #aaa  )  --> <!-- line ( 63:130 - 63:30) --><polyline  points="  63.0,130.0  63.0,30.0" style="fill:none;stroke:#aaa;stroke-width:0.2 "/><!-- setStroke(Stroke#000) --><!-- setPaint (  #aaa  )  --> <!-- line ( 78:129 - 78:131) --><polyline  points="  78.0,129.0  78.0,131.0" style="fill:none;stroke:#aaa;stroke-width:0.4 "/><!-- setStroke(Stroke#000) --><!-- setPaint (  #aaa  )  --> <!-- line ( 78:130 - 78:30) --><polyline  points="  78.0,130.0  78.0,30.0" style="fill:none;stroke:#aaa;stroke-width:0.2 "/><!-- setStroke(Stroke#000) --><!-- setPaint (  #aaa  )  --> <!-- line ( 92:129 - 92:131) --><polyline  points="  92.0,129.0  92.0,131.0" style="fill:none;stroke:#aaa;stroke-width:0.4 "/><!-- setStroke(Stroke#000) --><!-- setPaint (  #aaa  )  --> <!-- line ( 92:130 - 92:30) --><polyline  points="  92.0,130.0  92.0,30.0" style="fill:none;stroke:#aaa;stroke-width:0.2 "/><!-- setStroke(Stroke#000) --><!-- setPaint (  #aaa  )  --> <!-- line ( 107:129 - 107:131) --><polyline  points="  107.0,129.0  107.0,131.0" style="fill:none;stroke:#aaa;stroke-width:0.4 "/><!-- setStroke(Stroke#000) --><!-- setPaint (  #aaa  )  --> <!-- line ( 107:130 - 107:30) --><polyline  points="  107.0,130.0  107.0,30.0" style="fill:none;stroke:#aaa;stroke-width:0.2 "/><!-- setStroke(Stroke#000) --><!-- setPaint (  #aaa  )  --> <!-- line ( 121:129 - 121:131) --><polyline  points="  121.0,129.0  121.0,131.0" style="fill:none;stroke:#aaa;stroke-width:0.4 "/><!-- setStroke(Stroke#000) --><!-- setPaint (  #aaa  )  --> <!-- line ( 121:130 - 121:30) --><polyline  points="  121.0,130.0  121.0,30.0" style="fill:none;stroke:#aaa;stroke-width:0.2 "/><!-- setStroke(Stroke#000) --><!-- setPaint (  #aaa  )  --> <!-- line ( 135:129 - 135:131) --><polyline  points="  135.0,129.0  135.0,131.0" style="fill:none;stroke:#aaa;stroke-width:0.4 "/><!-- setStroke(Stroke#000) --><!-- setPaint (  #aaa  )  --> <!-- line ( 135:130 - 135:30) --><polyline  points="  135.0,130.0  135.0,30.0" style="fill:none;stroke:#aaa;stroke-width:0.2 "/><!-- setStroke(Stroke#000) --><!-- setPaint (  #aaa  )  --> <!-- line ( 150:129 - 150:131) --><polyline  points="  150.0,129.0  150.0,131.0" style="fill:none;stroke:#aaa;stroke-width:0.4 "/><!-- setStroke(Stroke#000) --><!-- setPaint (  #aaa  )  --> <!-- line ( 150:130 - 150:30) --><polyline  points="  150.0,130.0  150.0,30.0" style="fill:none;stroke:#aaa;stroke-width:0.2 "/><!-- setStroke(Stroke#000) --><!-- setPaint (  #aaa  )  --> <!-- line ( 164:129 - 164:131) --><polyline  points="  164.0,129.0  164.0,131.0" style="fill:none;stroke:#aaa;stroke-width:0.4 "/><!-- setStroke(Stroke#000) --><!-- setPaint (  #aaa  )  --> <!-- line ( 164:130 - 164:30) --><polyline  points="  164.0,130.0  164.0,30.0" style="fill:none;stroke:#aaa;stroke-width:0.2 "/><!-- setStroke(Stroke#000) --><!-- setPaint (  #aaa  )  --> <!-- line ( 179:129 - 179:131) --><polyline  points="  179.0,129.0  179.0,131.0" style="fill:none;stroke:#aaa;stroke-width:0.4 "/><!-- setStroke(Stroke#000) --><!-- setPaint (  #aaa  )  --> <!-- line ( 179:130 - 179:30) --><polyline  points="  179.0,130.0  179.0,30.0" style="fill:none;stroke:#aaa;stroke-width:0.2 "/><!-- setStroke(Stroke#000) --><!-- setPaint (  #aaa  )  --> <!-- line ( 193:129 - 193:131) --><polyline  points="  193.0,129.0  193.0,131.0" style="fill:none;stroke:#aaa;stroke-width:0.4 "/><!-- setStroke(Stroke#000) --><!-- setPaint (  #aaa  )  --> <!-- line ( 193:130 - 193:30) --><polyline  points="  193.0,130.0  193.0,30.0" style="fill:none;stroke:#aaa;stroke-width:0.2 "/><!-- setStroke(Stroke#000) --><!-- setPaint (  #aaa  )  --> <!-- line ( 207:129 - 207:131) --><polyline  points="  207.0,129.0  207.0,131.0" style="fill:none;stroke:#aaa;stroke-width:0.4 "/><!-- setStroke(Stroke#000) --><!-- setPaint (  #aaa  )  --> <!-- line ( 207:130 - 207:30) --><polyline  points="  207.0,130.0  207.0,30.0" style="fill:none;stroke:#aaa;stroke-width:0.2 "/><!-- setStroke(Stroke#000) --><!-- setPaint (  #aaa  )  --> <!-- line ( 222:129 - 222:131) --><polyline  points="  222.0,129.0  222.0,131.0" style="fill:none;stroke:#aaa;stroke-width:0.4 "/><!-- setStroke(Stroke#000) --><!-- setPaint (  #aaa  )  --> <!-- line ( 222:130 - 222:30) --><polyline  points="  222.0,130.0  222.0,30.0" style="fill:none;stroke:#aaa;stroke-width:0.2 "/><!-- setStroke(Stroke#000) --><!-- setPaint (  #aaa  )  --> <!-- line ( 236:129 - 236:131) --><polyline  points="  236.0,129.0  236.0,131.0" style="fill:none;stroke:#aaa;stroke-width:0.4 "/><!-- setStroke(Stroke#000) --><!-- setPaint (  #aaa  )  --> <!-- line ( 236:130 - 236:30) --><polyline  points="  236.0,130.0  236.0,30.0" style="fill:none;stroke:#aaa;stroke-width:0.2 "/><!-- setStroke(Stroke#000) --><!-- setPaint (  #aaa  )  --> <!-- line ( 251:129 - 251:131) --><polyline  points="  251.0,129.0  251.0,131.0" style="fill:none;stroke:#aaa;stroke-width:0.4 "/><!-- setStroke(Stroke#000) --><!-- setPaint (  #aaa  )  --> <!-- line ( 251:130 - 251:30) --><polyline  points="  251.0,130.0  251.0,30.0" style="fill:none;stroke:#aaa;stroke-width:0.2 "/><!-- setStroke(Stroke#000) --><!-- setPaint (  #aaa  )  --> <!-- line ( 265:129 - 265:131) --><polyline  points="  265.0,129.0  265.0,131.0" style="fill:none;stroke:#aaa;stroke-width:0.4 "/><!-- setStroke(Stroke#000) --><!-- setPaint (  #aaa  )  --> <!-- line ( 265:130 - 265:30) --><polyline  points="  265.0,130.0  265.0,30.0" style="fill:none;stroke:#aaa;stroke-width:0.2 "/><!-- setStroke(Stroke#000) --><!-- setPaint (  #aaa  )  --> <!-- line ( 279:129 - 279:131) --><polyline  points="  279.0,129.0  279.0,131.0" style="fill:none;stroke:#aaa;stroke-width:0.4 "/><!-- setStroke(Stroke#000) --><!-- setPaint (  #aaa  )  --> <!-- line ( 279:130 - 279:30) --><polyline  points="  279.0,130.0  279.0,30.0" style="fill:none;stroke:#aaa;stroke-width:0.2 "/><!-- setStroke(Stroke#000) --><!-- setPaint (  #aaa  )  --> <!-- line ( 294:129 - 294:131) --><polyline  points="  294.0,129.0  294.0,131.0" style="fill:none;stroke:#aaa;stroke-width:0.4 "/><!-- setStroke(Stroke#000) --><!-- setPaint (  #aaa  )  --> <!-- line ( 294:130 - 294:30) --><polyline  points="  294.0,130.0  294.0,30.0" style="fill:none;stroke:#aaa;stroke-width:0.2 "/><!-- setStroke(Stroke#000) --><!-- setPaint (  #aaa  )  --> <!-- line ( 308:129 - 308:131) --><polyline  points="  308.0,129.0  308.0,131.0" style="fill:none;stroke:#aaa;stroke-width:0.4 "/><!-- setStroke(Stroke#000) --><!-- setPaint (  #aaa  )  --> <!-- line ( 308:130 - 308:30) --><polyline  points="  308.0,130.0  308.0,30.0" style="fill:none;stroke:#aaa;stroke-width:0.2 "/><!-- setStroke(Stroke#000) --><!-- setPaint (  #aaa  )  --> <!-- line ( 323:129 - 323:131) --><polyline  points="  323.0,129.0  323.0,131.0" style="fill:none;stroke:#aaa;stroke-width:0.4 "/><!-- setStroke(Stroke#000) --><!-- setPaint (  #aaa  )  --> <!-- line ( 323:130 - 323:30) --><polyline  points="  323.0,130.0  323.0,30.0" style="fill:none;stroke:#aaa;stroke-width:0.2 "/><!-- setStroke(Stroke#000) --><!-- setPaint (  #aaa  )  --> <!-- line ( 337:129 - 337:131) --><polyline  points="  337.0,129.0  337.0,131.0" style="fill:none;stroke:#aaa;stroke-width:0.4 "/><!-- setStroke(Stroke#000) --><!-- setPaint (  #aaa  )  --> <!-- line ( 337:130 - 337:30) --><polyline  points="  337.0,130.0  337.0,30.0" style="fill:none;stroke:#aaa;stroke-width:0.2 "/><!-- setStroke(Stroke#000) --><!-- setPaint (  #aaa  )  --> <!-- line ( 351:129 - 351:131) --><polyline  points="  351.0,129.0  351.0,131.0" style="fill:none;stroke:#aaa;stroke-width:0.4 "/><!-- setStroke(Stroke#000) --><!-- setPaint (  #aaa  )  --> <!-- line ( 351:130 - 351:30) --><polyline  points="  351.0,130.0  351.0,30.0" style="fill:none;stroke:#aaa;stroke-width:0.2 "/><!-- setStroke(Stroke#000) --><!-- setPaint (  #aaa  )  --> <!-- line ( 366:129 - 366:131) --><polyline  points="  366.0,129.0  366.0,131.0" style="fill:none;stroke:#aaa;stroke-width:0.4 "/><!-- setStroke(Stroke#000) --><!-- setPaint (  #aaa  )  --> <!-- line ( 366:130 - 366:30) --><polyline  points="  366.0,130.0  366.0,30.0" style="fill:none;stroke:#aaa;stroke-width:0.2 "/><!-- setStroke(Stroke#000) --><!-- setPaint (  #aaa  )  --> <!-- line ( 380:129 - 380:131) --><polyline  points="  380.0,129.0  380.0,131.0" style="fill:none;stroke:#aaa;stroke-width:0.4 "/><!-- setStroke(Stroke#000) --><!-- setPaint (  #aaa  )  --> <!-- line ( 380:130 - 380:30) --><polyline  points="  380.0,130.0  380.0,30.0" style="fill:none;stroke:#aaa;stroke-width:0.2 "/><!-- setStroke(Stroke#000) --><!-- setPaint (  #aaa  )  --> <!-- line ( 395:129 - 395:131) --><polyline  points="  395.0,129.0  395.0,131.0" style="fill:none;stroke:#aaa;stroke-width:0.4 "/><!-- setStroke(Stroke#000) --><!-- setPaint (  #aaa  )  --> <!-- line ( 395:130 - 395:30) --><polyline  points="  395.0,130.0  395.0,30.0" style="fill:none;stroke:#aaa;stroke-width:0.2 "/><!-- setStroke(Stroke#000) --><!-- setPaint (  #aaa  )  --> <!-- line ( 409:129 - 409:131) --><polyline  points="  409.0,129.0  409.0,131.0" style="fill:none;stroke:#aaa;stroke-width:0.4 "/><!-- setStroke(Stroke#000) --><!-- setPaint (  #aaa  )  --> <!-- line ( 409:130 - 409:30) --><polyline  points="  409.0,130.0  409.0,30.0" style="fill:none;stroke:#aaa;stroke-width:0.2 "/><!-- setStroke(Stroke#000) --><!-- setPaint (  #aaa  )  --> <!-- line ( 423:129 - 423:131) --><polyline  points="  423.0,129.0  423.0,131.0" style="fill:none;stroke:#aaa;stroke-width:0.4 "/><!-- setStroke(Stroke#000) --><!-- setPaint (  #aaa  )  --> <!-- line ( 423:130 - 423:30) --><polyline  points="  423.0,130.0  423.0,30.0" style="fill:none;stroke:#aaa;stroke-width:0.2 "/><!-- setStroke(Stroke#000) --><!-- setPaint (  #aaa  )  --> <!-- line ( 438:129 - 438:131) --><polyline  points="  438.0,129.0  438.0,131.0" style="fill:none;stroke:#aaa;stroke-width:0.4 "/><!-- setStroke(Stroke#000) --><!-- setPaint (  #aaa  )  --> <!-- line ( 438:130 - 438:30) --><polyline  points="  438.0,130.0  438.0,30.0" style="fill:none;stroke:#aaa;stroke-width:0.2 "/><!-- setStroke(Stroke#000) --><!-- setPaint (  #aaa  )  --> <!-- line ( 452:129 - 452:131) --><polyline  points="  452.0,129.0  452.0,131.0" style="fill:none;stroke:#aaa;stroke-width:0.4 "/><!-- setStroke(Stroke#000) --><!-- setPaint (  #aaa  )  --> <!-- line ( 452:130 - 452:30) --><polyline  points="  452.0,130.0  452.0,30.0" style="fill:none;stroke:#aaa;stroke-width:0.2 "/><!-- setStroke(Stroke#000) --><!-- setPaint (  #F55  )  --> <!-- line ( 63:128 - 63:132) --><polyline  points="  63.0,128.0  63.0,132.0" style="fill:none;stroke:#F55;stroke-width:0.4 "/><!-- setStroke(Stroke#000) --><!-- setPaint (  #F55  )  --> <!-- line ( 63:130 - 63:30) --><polyline  points="  63.0,130.0  63.0,30.0" style="fill:none;stroke:#F55;stroke-width:0.2 "/><!-- setStroke(Stroke#000) --><!-- setPaint (  #F55  )  --> <!-- line ( 121:128 - 121:132) --><polyline  points="  121.0,128.0  121.0,132.0" style="fill:none;stroke:#F55;stroke-width:0.4 "/><!-- setStroke(Stroke#000) --><!-- setPaint (  #F55  )  --> <!-- line ( 121:130 - 121:30) --><polyline  points="  121.0,130.0  121.0,30.0" style="fill:none;stroke:#F55;stroke-width:0.2 "/><!-- setStroke(Stroke#000) --><!-- setPaint (  #F55  )  --> <!-- line ( 179:128 - 179:132) --><polyline  points="  179.0,128.0  179.0,132.0" style="fill:none;stroke:#F55;stroke-width:0.4 "/><!-- setStroke(Stroke#000) --><!-- setPaint (  #F55  )  --> <!-- line ( 179:130 - 179:30) --><polyline  points="  179.0,130.0  179.0,30.0" style="fill:none;stroke:#F55;stroke-width:0.2 "/><!-- setStroke(Stroke#000) --><!-- setPaint (  #F55  )  --> <!-- line ( 236:128 - 236:132) --><polyline  points="  236.0,128.0  236.0,132.0" style="fill:none;stroke:#F55;stroke-width:0.4 "/><!-- setStroke(Stroke#000) --><!-- setPaint (  #F55  )  --> <!-- line ( 236:130 - 236:30) --><polyline  points="  236.0,130.0  236.0,30.0" style="fill:none;stroke:#F55;stroke-width:0.2 "/><!-- setStroke(Stroke#000) --><!-- setPaint (  #F55  )  --> <!-- line ( 294:128 - 294:132) --><polyline  points="  294.0,128.0  294.0,132.0" style="fill:none;stroke:#F55;stroke-width:0.4 "/><!-- setStroke(Stroke#000) --><!-- setPaint (  #F55  )  --> <!-- line ( 294:130 - 294:30) --><polyline  points="  294.0,130.0  294.0,30.0" style="fill:none;stroke:#F55;stroke-width:0.2 "/><!-- setStroke(Stroke#000) --><!-- setPaint (  #F55  )  --> <!-- line ( 351:128 - 351:132) --><polyline  points="  351.0,128.0  351.0,132.0" style="fill:none;stroke:#F55;stroke-width:0.4 "/><!-- setStroke(Stroke#000) --><!-- setPaint (  #F55  )  --> <!-- line ( 351:130 - 351:30) --><polyline  points="  351.0,130.0  351.0,30.0" style="fill:none;stroke:#F55;stroke-width:0.2 "/><!-- setStroke(Stroke#000) --><!-- setPaint (  #F55  )  --> <!-- line ( 409:128 - 409:132) --><polyline  points="  409.0,128.0  409.0,132.0" style="fill:none;stroke:#F55;stroke-width:0.4 "/><!-- setStroke(Stroke#000) --><!-- setPaint (  #F55  )  --> <!-- line ( 409:130 - 409:30) --><polyline  points="  409.0,130.0  409.0,30.0" style="fill:none;stroke:#F55;stroke-width:0.2 "/><!-- setFont(  font-family="'Super Sans', Helvetica, sans-serif" font-size="10" font-style="normal" font-weight="normal" fill="#000" stroke-width="0.0" stroke="#000"  ) --><!-- setPaint (  #000  )  --><text font-family="'Super Sans', Helvetica, sans-serif" font-size="10" font-style="normal" font-weight="normal" fill="#000" stroke-width="0.0" stroke="#000"  x="108" y="144" transform="translate(0 , 0)  rotate(0.0) " >08:00</text><!-- setFont(  font-family="'Super Sans', Helvetica, sans-serif" font-size="10" font-style="normal" font-weight="normal" fill="#000" stroke-width="0.0" stroke="#000"  ) --><!-- setPaint (  #000  )  --><text font-family="'Super Sans', Helvetica, sans-serif" font-size="10" font-style="normal" font-weight="normal" fill="#000" stroke-width="0.0" stroke="#000"  x="166" y="144" transform="translate(0 , 0)  rotate(0.0) " >10:00</text><!-- setFont(  font-family="'Super Sans', Helvetica, sans-serif" font-size="10" font-style="normal" font-weight="normal" fill="#000" stroke-width="0.0" stroke="#000"  ) --><!-- setPaint (  #000  )  --><text font-family="'Super Sans', Helvetica, sans-serif" font-size="10" font-style="normal" font-weight="normal" fill="#000" stroke-width="0.0" stroke="#000"  x="223" y="144" transform="translate(0 , 0)  rotate(0.0) " >12:00</text><!-- setFont(  font-family="'Super Sans', Helvetica, sans-serif" font-size="10" font-style="normal" font-weight="normal" fill="#000" stroke-width="0.0" stroke="#000"  ) --><!-- setPaint (  #000  )  --><text font-family="'Super Sans', Helvetica, sans-serif" font-size="10" font-style="normal" font-weight="normal" fill="#000" stroke-width="0.0" stroke="#000"  x="281" y="144" transform="translate(0 , 0)  rotate(0.0) " >14:00</text><!-- setFont(  font-family="'Super Sans', Helvetica, sans-serif" font-size="10" font-style="normal" font-weight="normal" fill="#000" stroke-width="0.0" stroke="#000"  ) --><!-- setPaint (  #000  )  --><text font-family="'Super Sans', Helvetica, sans-serif" font-size="10" font-style="normal" font-weight="normal" fill="#000" stroke-width="0.0" stroke="#000"  x="338" y="144" transform="translate(0 , 0)  rotate(0.0) " >16:00</text><!-- setFont(  font-family="'Super Sans', Helvetica, sans-serif" font-size="10" font-style="normal" font-weight="normal" fill="#000" stroke-width="0.0" stroke="#000"  ) --><!-- setPaint (  #000  )  --><text font-family="'Super Sans', Helvetica, sans-serif" font-size="10" font-style="normal" font-weight="normal" fill="#000" stroke-width="0.0" stroke="#000"  x="396" y="144" transform="translate(0 , 0)  rotate(0.0) " >18:00</text><!-- setStroke(Stroke#000) --><!-- setPaint (  #aaa  )  --> <!-- line ( 57:125 - 59:125) --><polyline  points="  57.0,125.0  59.0,125.0" style="fill:none;stroke:#aaa;stroke-width:0.4 "/><!-- setStroke(Stroke#000) --><!-- setPaint (  #aaa  )  --> <!-- line ( 457:125 - 459:125) --><polyline  points="  457.0,125.0  459.0,125.0" style="fill:none;stroke:#aaa;stroke-width:0.4 "/><!-- setStroke(Stroke#000) --><!-- setPaint (  #aaa  )  --> <!-- line ( 58:125 - 458:125) --><polyline  points="  58.0,125.0  458.0,125.0" style="fill:none;stroke:#aaa;stroke-width:0.2 "/><!-- setStroke(Stroke#000) --><!-- setPaint (  #aaa  )  --> <!-- line ( 57:114 - 59:114) --><polyline  points="  57.0,114.0  59.0,114.0" style="fill:none;stroke:#aaa;stroke-width:0.4 "/><!-- setStroke(Stroke#000) --><!-- setPaint (  #aaa  )  --> <!-- line ( 457:114 - 459:114) --><polyline  points="  457.0,114.0  459.0,114.0" style="fill:none;stroke:#aaa;stroke-width:0.4 "/><!-- setStroke(Stroke#000) --><!-- setPaint (  #aaa  )  --> <!-- line ( 58:114 - 458:114) --><polyline  points="  58.0,114.0  458.0,114.0" style="fill:none;stroke:#aaa;stroke-width:0.2 "/><!-- setStroke(Stroke#000) --><!-- setPaint (  #aaa  )  --> <!-- line ( 57:104 - 59:104) --><polyline  points="  57.0,104.0  59.0,104.0" style="fill:none;stroke:#aaa;stroke-width:0.4 "/><!-- setStroke(Stroke#000) --><!-- setPaint (  #aaa  )  --> <!-- line ( 457:104 - 459:104) --><polyline  points="  457.0,104.0  459.0,104.0" style="fill:none;stroke:#aaa;stroke-width:0.4 "/><!-- setStroke(Stroke#000) --><!-- setPaint (  #aaa  )  --> <!-- line ( 58:104 - 458:104) --><polyline  points="  58.0,104.0  458.0,104.0" style="fill:none;stroke:#aaa;stroke-width:0.2 "/><!-- setStroke(Stroke#000) --><!-- setPaint (  #aaa  )  --> <!-- line ( 57:93 - 59:93) --><polyline  points="  57.0,93.0  59.0,93.0" style="fill:none;stroke:#aaa;stroke-width:0.4 "/><!-- setStroke(Stroke#000) --><!-- setPaint (  #aaa  )  --> <!-- line ( 457:93 - 459:93) --><polyline  points="  457.0,93.0  459.0,93.0" style="fill:none;stroke:#aaa;stroke-width:0.4 "/><!-- setStroke(Stroke#000) --><!-- setPaint (  #aaa  )  --> <!-- line ( 58:93 - 458:93) --><polyline  points="  58.0,93.0  458.0,93.0" style="fill:none;stroke:#aaa;stroke-width:0.2 "/><!-- setFont(  font-family="'Super Sans', Helvetica, sans-serif" font-size="10" font-style="normal" font-weight="normal" fill="#000" stroke-width="0.0" stroke="#000"  ) --><!-- setPaint (  #000  )  --><text font-family="'Super Sans', Helvetica, sans-serif" font-size="10" font-style="normal" font-weight="normal" fill="#000" stroke-width="0.0" stroke="#000"  x="30" y="86" transform="translate(0 , 0)  rotate(0.0) " >  10</text><!-- setStroke(Stroke#000) --><!-- setPaint (  #F55  )  --> <!-- line ( 56:83 - 60:83) --><polyline  points="  56.0,83.0  60.0,83.0" style="fill:none;stroke:#F55;stroke-width:0.4 "/><!-- setStroke(Stroke#000) --><!-- setPaint (  #F55  )  --> <!-- line ( 456:83 - 460:83) --><polyline  points="  456.0,83.0  460.0,83.0" style="fill:none;stroke:#F55;stroke-width:0.4 "/><!-- setStroke(Stroke#000) --><!-- setPaint (  #F55  )  --> <!-- line ( 58:83 - 458:83) --><polyline  points="  58.0,83.0  458.0,83.0" style="fill:none;stroke:#F55;stroke-width:0.2 "/><!-- setStroke(Stroke#000) --><!-- setPaint (  #aaa  )  --> <!-- line ( 57:72 - 59:72) --><polyline  points="  57.0,72.0  59.0,72.0" style="fill:none;stroke:#aaa;stroke-width:0.4 "/><!-- setStroke(Stroke#000) --><!-- setPaint (  #aaa  )  --> <!-- line ( 457:72 - 459:72) --><polyline  points="  457.0,72.0  459.0,72.0" style="fill:none;stroke:#aaa;stroke-width:0.4 "/><!-- setStroke(Stroke#000) --><!-- setPaint (  #aaa  )  --> <!-- line ( 58:72 - 458:72) --><polyline  points="  58.0,72.0  458.0,72.0" style="fill:none;stroke:#aaa;stroke-width:0.2 "/><!-- setStroke(Stroke#000) --><!-- setPaint (  #aaa  )  --> <!-- line ( 57:62 - 59:62) --><polyline  points="  57.0,62.0  59.0,62.0" style="fill:none;stroke:#aaa;stroke-width:0.4 "/><!-- setStroke(Stroke#000) --><!-- setPaint (  #aaa  )  --> <!-- line ( 457:62 - 459:62) --><polyline  points="  457.0,62.0  459.0,62.0" style="fill:none;stroke:#aaa;stroke-width:0.4 "/><!-- setStroke(Stroke#000) --><!-- setPaint (  #aaa  )  --> <!-- line ( 58:62 - 458:62) --><polyline  points="  58.0,62.0  458.0,62.0" style="fill:none;stroke:#aaa;stroke-width:0.2 "/><!-- setStroke(Stroke#000) --><!-- setPaint (  #aaa  )  --> <!-- line ( 57:51 - 59:51) --><polyline  points="  57.0,51.0  59.0,51.0" style="fill:none;stroke:#aaa;stroke-width:0.4 "/><!-- setStroke(Stroke#000) --><!-- setPaint (  #aaa  )  --> <!-- line ( 457:51 - 459:51) --><polyline  points="  457.0,51.0  459.0,51.0" style="fill:none;stroke:#aaa;stroke-width:0.4 "/><!-- setStroke(Stroke#000) --><!-- setPaint (  #aaa  )  --> <!-- line ( 58:51 - 458:51) --><polyline  points="  58.0,51.0  458.0,51.0" style="fill:none;stroke:#aaa;stroke-width:0.2 "/><!-- setStroke(Stroke#000) --><!-- setPaint (  #aaa  )  --> <!-- line ( 57:41 - 59:41) --><polyline  points="  57.0,41.0  59.0,41.0" style="fill:none;stroke:#aaa;stroke-width:0.4 "/><!-- setStroke(Stroke#000) --><!-- setPaint (  #aaa  )  --> <!-- line ( 457:41 - 459:41) --><polyline  points="  457.0,41.0  459.0,41.0" style="fill:none;stroke:#aaa;stroke-width:0.4 "/><!-- setStroke(Stroke#000) --><!-- setPaint (  #aaa  )  --> <!-- line ( 58:41 - 458:41) --><polyline  points="  58.0,41.0  458.0,41.0" style="fill:none;stroke:#aaa;stroke-width:0.2 "/><!-- setFont(  font-family="'Super Sans', Helvetica, sans-serif" font-size="10" font-style="normal" font-weight="normal" fill="#000" stroke-width="0.0" stroke="#000"  ) --><!-- setPaint (  #000  )  --><text font-family="'Super Sans', Helvetica, sans-serif" font-size="10" font-style="normal" font-weight="normal" fill="#000" stroke-width="0.0" stroke="#000"  x="30" y="33" transform="translate(0 , 0)  rotate(0.0) " >  20</text><!-- setStroke(Stroke#000) --><!-- setPaint (  #F55  )  --> <!-- line ( 56:30 - 60:30) --><polyline  points="  56.0,30.0  60.0,30.0" style="fill:none;stroke:#F55;stroke-width:0.4 "/><!-- setStroke(Stroke#000) --><!-- setPaint (  #F55  )  --> <!-- line ( 456:30 - 460:30) --><polyline  points="  456.0,30.0  460.0,30.0" style="fill:none;stroke:#F55;stroke-width:0.4 "/><!-- setStroke(Stroke#000) --><!-- setPaint (  #F55  )  --> <!-- line ( 58:30 - 458:30) --><polyline  points="  58.0,30.0  458.0,30.0" style="fill:none;stroke:#F55;stroke-width:0.2 "/><!-- setStroke(Stroke#000) --><!-- setPaint (  #aaa  )  --> <!-- line ( 458:130 - 458:30) --><polyline  points="  458.0,130.0  458.0,30.0" style="fill:none;stroke:#aaa;stroke-width:1.0 "/><!-- setStroke(Stroke#000) --><!-- setPaint (  #aaa  )  --> <!-- line ( 58:30 - 458:30) --><polyline  points="  58.0,30.0  458.0,30.0" style="fill:none;stroke:#aaa;stroke-width:1.0 "/><!-- setStroke(Stroke#000) --><!-- setPaint (  #000  )  --> <!-- line ( 54:130 - 462:130) --><polyline  points="  54.0,130.0  462.0,130.0" style="fill:none;stroke:#000;stroke-width:1.0 "/><!-- setStroke(Stroke#000) --><!-- setPaint (  #aaa  )  --> <!-- line ( 58:130 - 58:30) --><polyline  points="  58.0,130.0  58.0,30.0" style="fill:none;stroke:#aaa;stroke-width:1.0 "/><!-- setStroke(Stroke#000) --><!-- setPaint (  #F00  )  --> <!-- line ( 462:127 - 462:133) --><polyline  points="  462.0,127.0  462.0,133.0" style="fill:none;stroke:#F00;stroke-width:1.0 "/><!-- setStroke(Stroke#000) --><!-- setPaint (  #F00  )  --> <!-- line ( 462:127 - 467:130) --><polyline  points="  462.0,127.0  467.0,130.0" style="fill:none;stroke:#F00;stroke-width:1.0 "/><!-- setStroke(Stroke#000) --><!-- setPaint (  #F00  )  --> <!-- line ( 462:133 - 467:130) --><polyline  points="  462.0,133.0  467.0,130.0" style="fill:none;stroke:#F00;stroke-width:1.0 "/><!-- setFont(  font-family="'Super Sans', Helvetica, sans-serif" font-size="12" font-style="normal" font-weight="bold" fill="#000" stroke-width="0.0" stroke="#000"  ) --><!-- setPaint (  #000  )  --><text font-family="'Super Sans', Helvetica, sans-serif" font-size="12" font-style="normal" font-weight="bold" fill="#000" stroke-width="0.0" stroke="#000"  x="229" y="18" transform="translate(0 , 0)  rotate(0.0) " >CPU</text><!-- setPaint (  #000  )  --><rect   x="10" y="150" width="10" height="10" style="fill:#000; stroke:none ;"/><!-- setPaint (  #F00  )  --><rect   x="11" y="151" width="8" height="8" style="fill:#F00; stroke:none ;"/><!-- setFont(  font-family="'Super Sans', Helvetica, sans-serif" font-size="10" font-style="normal" font-weight="normal" fill="#000" stroke-width="0.0" stroke="#000"  ) --><!-- setPaint (  #000  )  --><text font-family="'Super Sans', Helvetica, sans-serif" font-size="10" font-style="normal" font-weight="normal" fill="#000" stroke-width="0.0" stroke="#000"  x="25" y="160" transform="translate(0 , 0)  rotate(0.0) " >cpuA</text><!-- setPaint (  #000  )  --><rect   x="57" y="150" width="10" height="10" style="fill:#000; stroke:none ;"/><!-- setPaint (  #0F0  )  --><rect   x="58" y="151" width="8" height="8" style="fill:#0F0; stroke:none ;"/><!-- setFont(  font-family="'Super Sans', Helvetica, sans-serif" font-size="10" font-style="normal" font-weight="normal" fill="#000" stroke-width="0.0" stroke="#000"  ) --><!-- setPaint (  #000  )  --><text font-family="'Super Sans', Helvetica, sans-serif" font-size="10" font-style="normal" font-weight="normal" fill="#000" stroke-width="0.0" stroke="#000"  x="72" y="160" transform="translate(0 , 0)  rotate(0.0) " >cpuB</text><!-- setPaint (  #000  )  --><rect   x="105" y="150" width="10" height="10" style="fill:#000; stroke:none ;"/><!-- setPaint (  #00F  )  --><rect   x="106" y="151" width="8" height="8" style="fill:#00F; stroke:none ;"/><!-- setFont(  font-family="'Super Sans', Helvetica, sans-serif" font-size="10" font-style="normal" font-weight="normal" fill="#000" stroke-width="0.0" stroke="#000"  ) --><!-- setPaint (  #000  )  --><text font-family="'Super Sans', Helvetica, sans-serif" font-size="10" font-style="normal" font-weight="normal" fill="#000" stroke-width="0.0" stroke="#000"  x="120" y="160" transform="translate(0 , 0)  rotate(0.0) " >cpuC</text><clipPath id="_X59_Y29_W399_H102"><rect   x="59" y="29" width="399" height="102" style="fill:#000; stroke:none ;"/></clipPath><!-- setTransform(int transform="translate(0 , 0)  rotate(0.0) "  )  --><clipPath id="_X0_Y0_W474_H174"><rect   x="0" y="0" width="474" height="174" style="fill:#000; stroke:none ;"/></clipPath><!-- translate(int 466, int4  )  --><!-- rotate(int 1.5707963267948966  )  --><!-- setFont(  font-family="'Super Sans', Helvetica, sans-serif " font-size="9" font-style="normal" font-weight="normal" fill="#000" stroke-width="0.0" stroke="#000"  ) --><!-- setPaint (  #777  )  --><text font-family="'Super Sans', Helvetica, sans-serif " font-size="9" font-style="normal" font-weight="normal" fill="#000" stroke-width="0.0" stroke="#000"  x="0" y="0" transform="translate(466 , 4)  rotate(90.0) " >Created with JRobin</text><!-- setTransform(int transform="translate(0 , 0)  rotate(0.0) "  )  --><clipPath id="_X0_Y0_W474_H174"><rect   x="0" y="0" width="474" height="174" style="fill:#777; stroke:none ;"/></clipPath></svg>